<svg xmlns="http://www.w3.org/2000/svg" width="400" height="36" viewBox="0 0 400 36"><defs><clipPath id="5t2sa"><path fill="#fff" d="M381.615 1.03l.707-.708 16.97 16.971L400 18l-.707.707-16.97 16.97-.708-.706L398.585 18z"/></clipPath><clipPath id="5t2sb"><path fill="#fff" d="M374.615 1.03l.707-.708 16.97 16.971L393 18l-.707.707-16.97 16.97-.708-.706L391.585 18z"/></clipPath><clipPath id="5t2sc"><path fill="#fff" d="M291 18v-1h108v1z"/></clipPath><clipPath id="5t2sd"><path fill="#fff" d="M.707 18.2L0 17.5l.707-.7L17.677.01l.708.7L1.415 17.5l16.97 16.79-.707.7L.708 18.2z"/></clipPath><clipPath id="5t2se"><path fill="#fff" d="M24.678.01l.707.7L8.415 17.5l16.97 16.79-.707.7L7 17.5z"/></clipPath><clipPath id="5t2sf"><path fill="#fff" d="M118.5 12a5.5 5.5 0 1 1 0 11 5.5 5.5 0 0 1 0-11zm162 0a5.5 5.5 0 1 1 0 11 5.5 5.5 0 0 1 0-11z"/></clipPath><clipPath id="5t2sg"><path fill="#fff" d="M108 17.5v-.99H1v.99z"/></clipPath></defs><g><g><g><path fill="none" stroke="#bb9c66" stroke-miterlimit="20" stroke-width="2" d="M381.615 1.03l.707-.708 16.97 16.971h0L400 18l-.707.707h0l-16.97 16.97-.708-.706L398.585 18z" clip-path="url(&quot;#5t2sa&quot;)"/></g><g><path fill="none" stroke="#bb9c66" stroke-miterlimit="20" stroke-width="2" d="M374.615 1.03l.707-.708 16.97 16.971h0L393 18l-.707.707h0l-16.97 16.97-.708-.706L391.585 18z" clip-path="url(&quot;#5t2sb&quot;)"/></g><g><path fill="none" stroke="#bb9c66" stroke-miterlimit="20" stroke-width="6" d="M291 18v0-1 0h108v1z" clip-path="url(&quot;#5t2sc&quot;)"/></g><g><path fill="none" stroke="#bb9c66" stroke-miterlimit="20" stroke-width="6" d="M.707 18.2L0 17.5l.707-.7h0L17.677.01l.708.7L1.415 17.5l16.97 16.79-.707.7L.708 18.2z" clip-path="url(&quot;#5t2sd&quot;)"/></g><g><path fill="none" stroke="#bb9c66" stroke-miterlimit="20" stroke-width="6" d="M24.678.01l.707.7L8.415 17.5l16.97 16.79-.707.7L7 17.5z" clip-path="url(&quot;#5t2se&quot;)"/></g><g><path fill="none" stroke="#bb9c66" stroke-miterlimit="20" stroke-width="2" d="M118.5 12a5.5 5.5 0 1 1 0 11 5.5 5.5 0 0 1 0-11zm162 0a5.5 5.5 0 1 1 0 11 5.5 5.5 0 0 1 0-11z" clip-path="url(&quot;#5t2sf&quot;)"/></g><g><path fill="none" stroke="#bb9c66" stroke-miterlimit="20" stroke-width="6" d="M108 17.5v0-.99 0H1v.99z" clip-path="url(&quot;#5t2sg&quot;)"/></g></g></g></svg>